Coordinates
version=1
nRows=10
nColumns=63
inDegrees=yes

Units are S.I. units (second, meters, Newtons, ...)
If the header above contains a line with 'inDegrees', this indicates whether rotational values are in degrees (yes) or radians (no).

endheader
time	pelvis_tilt	pelvis_list	pelvis_rotation	pelvis_tx	pelvis_ty	pelvis_tz	hip_flexion_r	hip_adduction_r	hip_rotation_r	knee_angle_r	knee_angle_r_beta	ankle_angle_r	subtalar_angle_r	mtp_angle_r	hip_flexion_l	hip_adduction_l	hip_rotation_l	knee_angle_l	knee_angle_l_beta	ankle_angle_l	subtalar_angle_l	mtp_angle_l	L5_S1_Flex_Ext	L5_S1_Lat_Bending	L5_S1_axial_rotation	L4_L5_Flex_Ext	L4_L5_Lat_Bending	L4_L5_axial_rotation	L3_L4_Flex_Ext	L3_L4_Lat_Bending	L3_L4_axial_rotation	L2_L3_Flex_Ext	L2_L3_Lat_Bending	L2_L3_axial_rotation	L1_L2_Flex_Ext	L1_L2_Lat_Bending	L1_L2_axial_rotation	L1_T12_Flex_Ext	L1_T12_Lat_Bending	L1_T12_axial_rotation	Abs_r3	Abs_r2	Abs_r1	Abs_t1	Abs_t2	neck_flexion	neck_bending	neck_rotation	arm_flex_r	arm_add_r	arm_rot_r	elbow_flex_r	pro_sup_r	wrist_flex_r	wrist_dev_r	arm_flex_l	arm_add_l	arm_rot_l	elbow_flex_l	pro_sup_l	wrist_flex_l	wrist_dev_l
      1.66101695	     -0.53815710	    -11.05339885	    100.23245072	      0.18381155	      0.45991202	      1.03248413	     17.58268155	     -2.40712058	    -18.73369391	     13.86386055	      0.24197001	     42.43881387	     16.01595290	      0.00000000	     23.70512262	      4.34864039	     13.25238933	     19.79733328	      0.34552865	     37.89162156	    -13.83726715	      0.00000000	     -0.05771963	     -0.34891436	     -0.45700196	     -0.10719112	     -0.46405609	     -0.48556458	     -0.09482757	     -0.84835037	     -0.48556458	     -0.06596776	     -0.84835037	     -0.39987671	     -0.05359844	     -0.71150615	     -0.37131409	     -0.03298099	     -0.54046834	     -0.34275147	     -0.41228551	     -3.94698898	     -2.54170777	      0.00000000	      0.00000000	     17.36096645	      0.91000097	      8.40184918	     18.16071711	    -18.13613671	    103.35800735	     14.74606996	      7.21765769	     -7.81115779	    -13.29352106	     14.42205241	    -26.48317441	    112.12160163	      2.70834175	      2.10979570	     -3.39610133	    -17.95131965
      1.67796610	     -0.47212623	    -11.19008476	    100.88821118	      0.18251185	      0.46140279	      1.03250489	     17.96364370	     -2.61082013	    -18.93832061	     14.33699134	      0.25022770	     42.55781675	     15.46993183	      0.00000000	     23.06777724	      4.37755604	     13.51629218	     18.06028097	      0.31521137	     37.60138009	    -13.13130338	      0.00000000	     -0.08329878	     -0.35205011	     -0.61137589	     -0.15469417	     -0.46822665	     -0.64958688	     -0.13685157	     -0.85597465	     -0.64958688	     -0.09520218	     -0.85597465	     -0.53495390	     -0.07735125	     -0.71790059	     -0.49674291	     -0.04759692	     -0.54532563	     -0.45853191	     -0.59499487	     -3.98246131	     -3.40028926	      0.00000000	      0.00000000	     16.39457388	      0.72075673	      8.90506370	     18.27088368	    -18.20699637	    103.73163566	     14.75066145	      7.60543730	     -7.60247073	    -13.76914466	     14.57476982	    -26.88736075	    111.29607108	      2.62664172	      1.90399575	     -2.58049636	    -18.41530702
      1.69491525	     -0.79961159	    -11.30553723	    101.36598916	      0.18226370	      0.46276911	      1.03258315	     18.31067197	     -3.06479923	    -18.25796455	     14.82038752	      0.25866456	     42.55770236	     14.38550833	      0.00000000	     22.40893373	      4.63556174	     13.15262685	     16.48057312	      0.28764026	     37.23481281	    -11.92560356	      0.00000000	     -0.12459029	     -0.41260043	     -0.80469149	     -0.23137663	     -0.54875858	     -0.85498471	     -0.20468939	     -1.00319670	     -0.85498471	     -0.14239424	     -1.00319670	     -0.70410505	     -0.11569455	     -0.84137481	     -0.65381184	     -0.07119089	     -0.63911807	     -0.60351862	     -0.88993600	     -4.66741864	     -4.47545266	      0.00000000	      0.00000000	     15.73164272	      1.12253852	      9.90250825	     18.64990488	    -17.70249281	    105.18520005	     14.19599246	      8.25966402	     -7.35345757	    -13.86613287	     14.58254844	    -27.61191649	    108.16956412	      2.50578601	      1.98319728	     -0.27950017	    -19.11789768
      1.71186441	     -0.63814979	    -11.42197135	    101.81040543	      0.18154807	      0.46361983	      1.03342760	     18.81615909	     -3.13135585	    -18.23456376	     15.39138388	      0.26863033	     42.33611148	     14.03265486	      0.00000000	     22.15848786	      4.55077340	     13.29804119	     15.56533041	      0.27166626	     36.89576619	    -11.55224500	      0.00000000	     -0.15624050	     -0.41143839	     -0.90639746	     -0.29015424	     -0.54721306	     -0.96304731	     -0.25668752	     -1.00037130	     -0.96304731	     -0.17856727	     -1.00037130	     -0.79309778	     -0.14508493	     -0.83900516	     -0.73644794	     -0.08927582	     -0.63731806	     -0.67979810	     -1.11601028	     -4.65427333	     -5.04111078	      0.00000000	      0.00000000	     15.20091839	      0.91382974	      9.85617799	     18.91471276	    -17.82787212	    105.22810871	     14.10426875	      8.28286935	     -7.20575552	    -14.27477092	     15.07127760	    -27.85608252	    108.08549033	      2.33703800	      1.99990072	     -0.02486327	    -19.18575136
      1.72881356	     -1.06147506	    -11.61104869	    101.97904529	      0.18214851	      0.46394680	      1.03350192	     19.60076768	     -3.37948250	    -15.24885071	     16.36902891	      0.28569345	     42.28161159	     10.17344685	      0.00000000	     21.51012707	      4.83334450	     12.89732817	     14.05991069	      0.24539173	     36.62198029	    -10.74934162	      0.00000000	     -0.17649393	     -0.49962143	     -0.95051927	     -0.32776687	     -0.66449650	     -1.00992672	     -0.28996187	     -1.21477954	     -1.00992672	     -0.20171491	     -1.21477954	     -0.83170436	     -0.16389226	     -1.01882802	     -0.77229691	     -0.10084863	     -0.77391359	     -0.71288945	     -1.26067847	     -5.65181752	     -5.28650302	      0.00000000	      0.00000000	     14.88397408	      0.85428781	      9.34898811	     18.94552181	    -17.49069626	    105.47989502	     13.60759778	      7.36266754	     -6.33673500	    -14.95615771	     15.64199083	    -28.46635586	    107.98033312	      2.00523857	      1.94272609	      1.46603692	    -18.88880793
      1.74576271	     -1.12569085	    -11.76691521	    102.24252697	      0.18248466	      0.46390345	      1.03446608	     20.44341256	     -3.32635740	    -12.88706340	     17.33770286	      0.30260000	     42.01073286	      6.96725852	      0.00000000	     21.30880450	      4.90706559	     12.92303274	     13.39167091	      0.23372875	     36.34486292	    -10.51230022	      0.00000000	     -0.20235159	     -0.54694669	     -0.98254248	     -0.37578714	     -0.72743910	     -1.04395138	     -0.33244343	     -1.32984618	     -1.04395138	     -0.23126764	     -1.32984618	     -0.85972467	     -0.18790369	     -1.11533369	     -0.79831576	     -0.11562370	     -0.84722042	     -0.73690686	     -1.44537720	     -6.18717034	     -5.46460651	      0.00000000	      0.00000000	     14.50484612	      0.63098499	      8.39265865	     19.09118281	    -17.48840698	    104.57797445	     13.44176954	      6.46284069	     -5.83940558	    -15.54688224	     16.41629367	    -28.82523176	    108.18632816	      1.89941214	      1.87696397	      1.75860039	    -18.33830556
      1.76271186	     -1.15356150	    -11.93577848	    102.68943571	      0.18247800	      0.46359754	      1.03575533	     21.27351103	     -3.56285901	    -12.47848890	     18.36859654	      0.32059249	     42.22003545	      6.15871181	      0.00000000	     21.28924550	      5.05187898	     13.07198497	     13.04023786	      0.22759509	     36.09684211	    -10.34918561	      0.00000000	     -0.22826662	     -0.59303948	     -1.05739868	     -0.42391394	     -0.78874251	     -1.12348609	     -0.37501923	     -1.44191620	     -1.12348609	     -0.26088592	     -1.44191620	     -0.92522384	     -0.21196838	     -1.20932612	     -0.85913642	     -0.13043155	     -0.91861816	     -0.79304901	     -1.63048562	     -6.70858126	     -5.88093421	      0.00000000	      0.00000000	     14.05685305	      0.34377228	      7.21852368	     19.40163824	    -17.48881013	    103.87790272	     13.22888338	      5.94050429	     -5.65834957	    -16.03862465	     17.14784858	    -29.10960165	    107.99317357	      1.85107769	      1.81916001	      1.91512770	    -17.73605005
      1.77966102	     -1.33471994	    -12.16236019	    102.82875878	      0.18321722	      0.46320952	      1.03709543	     22.18874057	     -3.76552617	    -11.32338387	     19.33301611	      0.33742479	     42.38541989	      5.01368734	      0.00000000	     21.41909081	      5.26587716	     12.94465262	     12.90705555	      0.22527062	     35.75547404	    -10.41209162	      0.00000000	     -0.25100243	     -0.66976287	     -1.06607920	     -0.46613662	     -0.89078461	     -1.13270915	     -0.41237190	     -1.62846143	     -1.13270915	     -0.28687068	     -1.62846143	     -0.93281930	     -0.23308086	     -1.36578044	     -0.86618935	     -0.14342279	     -1.03746268	     -0.79955940	     -1.79288528	     -7.57649149	     -5.92921267	      0.00000000	      0.00000000	     13.51834242	      0.14479726	      5.54039784	     19.73397722	    -17.33759320	    103.39344130	     12.82834657	      5.68852744	     -5.68328017	    -16.37301254	     17.99836035	    -29.46603237	    108.18115415	      1.82231985	      1.84448137	      1.90289483	    -17.13894452
      1.79661017	     -1.66857621	    -12.34078149	    102.32144839	      0.18527986	      0.46295377	      1.03814145	     23.10101529	     -3.60244820	     -8.41728639	     20.16380471	      0.35192478	     42.30015434	      2.27912603	      0.00000000	     21.46507077	      5.36408441	     12.29449535	     12.73106998	      0.22219909	     35.45068521	    -10.55094137	      0.00000000	     -0.28099084	     -0.77151544	     -0.96270493	     -0.52182808	     -1.02611553	     -1.02287399	     -0.46163984	     -1.87586263	     -1.02287399	     -0.32114443	     -1.87586263	     -0.84236682	     -0.26092809	     -1.57327428	     -0.78219776	     -0.16055816	     -1.19507741	     -0.72202870	     -2.00708944	     -8.72753692	     -5.35427602	      0.00000000	      0.00000000	     12.77029333	      0.39465956	      4.10339726	     20.22269386	    -16.93109862	    104.61883202	     12.00701187	      5.90219529	     -6.46655107	    -16.48778980	     18.88622686	    -29.88077316	    109.85480899	      1.63842998	      1.76560044	      1.65493451	    -16.73879467
      1.81355932	     -1.65048313	    -12.56132038	    102.49136256	      0.18602547	      0.46259651	      1.03969336	     23.83230596	     -3.61764669	     -7.83925824	     20.69704018	      0.36123150	     42.52693231	      1.84080229	      0.00000000	     22.02947072	      5.42589375	     12.04815228	     13.29748471	      0.23208489	     35.44106443	    -10.50488045	      0.00000000	     -0.30161435	     -0.82439226	     -0.98548957	     -0.56012801	     -1.09644171	     -1.04708267	     -0.49552222	     -2.00442735	     -1.04708267	     -0.34471504	     -2.00442735	     -0.86230338	     -0.28007909	     -1.68110070	     -0.80071028	     -0.17234244	     -1.27698362	     -0.73911718	     -2.15440115	     -9.32569016	     -5.48099736	      0.00000000	      0.00000000	     12.07474431	      0.56448095	      2.95764798	     20.87347841	    -16.67162799	    106.93654701	     10.94789630	      7.15073000	     -7.56039699	    -16.15310314	     19.68383383	    -30.01156694	    110.58181507	      1.56497110	      1.85246500	      1.05580091	    -16.00554204
